<svg width="96" height="96" fill="none" xmlns="http://www.w3.org/2000/svg"><g clip-path="url(#clip0_3_317)"><path d="M48 6.4c8.8 0 14.4 6.4 15.2 15.2 7.2-5.6 16.8-4.8 23.2 1.6 6.4 6.4 7.2 16 1.6 23.2 8.8.8 15.201 6.4 15.201 15.2 0 8.8-6.4 14.4-15.2 15.2 5.6 7.2 4.8 16.8-1.6 23.2-6.4 6.4-16 7.2-23.2 1.6-.8 8.8-6.4 15.2-15.2 15.2-8.8 0-14.4-6.4-15.2-15.2-7.2 5.6-16.8 4.8-23.2-1.6C3.2 93.6 2.4 84 8 76.8-.8 76-7.2 70.4-7.2 61.6c0-8.8 6.4-14.4 15.2-15.2-5.6-7.2-4.8-16.8 1.6-23.2 6.4-6.4 16-7.2 23.2-1.6.8-8.8 6.4-15.2 15.2-15.2z" fill="#F7FCFF" fill-opacity=".15"/><path d="M36.8 53.6c2.651 0 4.8-3.224 4.8-7.2 0-3.977-2.149-7.2-4.8-7.2S32 42.422 32 46.4c0 3.976 2.149 7.2 4.8 7.2zm22.398 0c2.651 0 4.8-3.224 4.8-7.2 0-3.977-2.149-7.2-4.8-7.2-2.65 0-4.8 3.223-4.8 7.2 0 3.976 2.15 7.2 4.8 7.2z" fill="#fff"/><path d="M35.2 60.8c6.4 7.2 19.2 7.2 25.6 0" stroke="#fff" stroke-width="4.8" stroke-linecap="round"/></g><defs><clipPath id="clip0_3_317"><path fill="#fff" d="M0 0h96v96H0z"/></clipPath></defs></svg>